<svg xmlns="http://www.w3.org/2000/svg" width="1400" height="900" viewBox="0 0 1400 900">
  <rect width="1400" height="900" fill="#f2f6ff"/>
  <text x="700" y="90" text-anchor="middle" font-family="Arial, sans-serif" font-size="44" font-weight="700" fill="#1c1c1e">FocusNest Demo Storyboard</text>
  <text x="700" y="125" text-anchor="middle" font-family="Arial, sans-serif" font-size="20" fill="#6b7280">Login → Add Task → Complete → Focus Timer → Progress Insights</text>

  <rect x="120" y="170" width="240" height="520" rx="20" fill="#ffffff" stroke="#d8e3fa"/>
  <text x="240" y="220" text-anchor="middle" font-family="Arial, sans-serif" font-size="22" font-weight="700" fill="#1c1c1e">1. Sign In</text>
  <rect x="145" y="250" width="190" height="300" rx="12" fill="#f8f9fb" stroke="#e5e7eb"/>
  <rect x="160" y="278" width="160" height="34" rx="8" fill="#ffffff" stroke="#e5e7eb"/>
  <rect x="160" y="322" width="160" height="34" rx="8" fill="#ffffff" stroke="#e5e7eb"/>
  <rect x="160" y="374" width="160" height="34" rx="8" fill="#5b8def"/>
  <rect x="160" y="458" width="160" height="34" rx="8" fill="#5b8def"/>

  <rect x="390" y="170" width="240" height="520" rx="20" fill="#ffffff" stroke="#d8e3fa"/>
  <text x="510" y="220" text-anchor="middle" font-family="Arial, sans-serif" font-size="22" font-weight="700" fill="#1c1c1e">2. Add Task</text>
  <rect x="415" y="250" width="190" height="300" rx="12" fill="#f8f9fb" stroke="#e5e7eb"/>
  <rect x="430" y="285" width="160" height="30" rx="15" fill="#eaf1ff"/>
  <rect x="430" y="326" width="160" height="34" rx="8" fill="#ffffff" stroke="#e5e7eb"/>
  <rect x="430" y="368" width="160" height="92" rx="8" fill="#ffffff" stroke="#e5e7eb"/>
  <rect x="430" y="473" width="160" height="34" rx="8" fill="#5b8def"/>

  <rect x="660" y="170" width="240" height="520" rx="20" fill="#ffffff" stroke="#d8e3fa"/>
  <text x="780" y="220" text-anchor="middle" font-family="Arial, sans-serif" font-size="22" font-weight="700" fill="#1c1c1e">3. Complete</text>
  <rect x="685" y="250" width="190" height="300" rx="12" fill="#f8f9fb" stroke="#e5e7eb"/>
  <rect x="700" y="282" width="160" height="62" rx="10" fill="#ffffff" stroke="#e5e7eb"/>
  <rect x="700" y="358" width="160" height="62" rx="10" fill="#f2fbf3" stroke="#cbe8cf"/>
  <rect x="712" y="377" width="14" height="14" rx="3" fill="#4caf50"/>
  <path d="M715 384 L719 388 L724 381" fill="none" stroke="#ffffff" stroke-width="1.8"/>

  <rect x="930" y="170" width="240" height="520" rx="20" fill="#ffffff" stroke="#d8e3fa"/>
  <text x="1050" y="220" text-anchor="middle" font-family="Arial, sans-serif" font-size="22" font-weight="700" fill="#1c1c1e">4. Timer</text>
  <rect x="955" y="250" width="190" height="300" rx="12" fill="#f8f9fb" stroke="#e5e7eb"/>
  <circle cx="1050" cy="370" r="66" fill="none" stroke="#e7ebf3" stroke-width="10"/>
  <path d="M1050 304 A66 66 0 1 1 992 405" fill="none" stroke="#5b8def" stroke-width="10" stroke-linecap="round"/>
  <text x="1050" y="377" text-anchor="middle" font-family="Arial, sans-serif" font-size="24" font-weight="700" fill="#1c1c1e">18:42</text>
  <rect x="970" y="470" width="64" height="26" rx="7" fill="#5b8def"/>
  <rect x="1040" y="470" width="64" height="26" rx="7" fill="#2c3652"/>

  <rect x="1200" y="170" width="100" height="520" rx="20" fill="#ffffff" stroke="#d8e3fa"/>
  <text x="1250" y="220" text-anchor="middle" font-family="Arial, sans-serif" font-size="18" font-weight="700" fill="#1c1c1e">5</text>
  <text x="1250" y="246" text-anchor="middle" font-family="Arial, sans-serif" font-size="13" fill="#6b7280">Progress</text>
  <circle cx="1250" cy="330" r="28" fill="none" stroke="#e7ebf3" stroke-width="6"/>
  <path d="M1250 302 A28 28 0 1 1 1226 336" fill="none" stroke="#4caf50" stroke-width="6" stroke-linecap="round"/>
  <text x="1250" y="336" text-anchor="middle" font-family="Arial, sans-serif" font-size="12" font-weight="700" fill="#1c1c1e">75%</text>
</svg>
