<svg xmlns="http://www.w3.org/2000/svg" width="1400" height="900" viewBox="0 0 1400 900">
  <rect width="1400" height="900" fill="#f8f9fb"/>
  <rect x="350" y="40" width="700" height="820" rx="26" fill="#f8f9fb" stroke="#dde6f7"/>
  <text x="410" y="105" font-family="Arial, sans-serif" font-size="34" font-weight="700" fill="#1c1c1e">Your Progress</text>

  <rect x="410" y="140" width="580" height="360" rx="18" fill="#ffffff" stroke="#e5e7eb"/>
  <circle cx="700" cy="305" r="95" fill="none" stroke="#e7ebf3" stroke-width="16"/>
  <path d="M700 210 A95 95 0 1 1 607 326" fill="none" stroke="#4caf50" stroke-width="16" stroke-linecap="round"/>
  <text x="700" y="318" text-anchor="middle" font-family="Arial, sans-serif" font-size="56" font-weight="700" fill="#1c1c1e">75%</text>
  <text x="700" y="348" text-anchor="middle" font-family="Arial, sans-serif" font-size="17" fill="#6b7280">Completed</text>
  <text x="700" y="444" text-anchor="middle" font-family="Arial, sans-serif" font-size="19" fill="#6b7280">You are building consistency one task at a time.</text>

  <rect x="410" y="522" width="580" height="260" rx="18" fill="#ffffff" stroke="#e5e7eb"/>
  <text x="440" y="574" font-family="Arial, sans-serif" font-size="31" font-weight="700" fill="#1c1c1e">Today's Stats</text>

  <rect x="440" y="600" width="250" height="116" rx="12" fill="#ecf7ec"/>
  <text x="468" y="636" font-family="Arial, sans-serif" font-size="18" fill="#6b7280">Completed</text>
  <text x="468" y="689" font-family="Arial, sans-serif" font-size="54" font-weight="700" fill="#1c1c1e">3</text>

  <rect x="710" y="600" width="250" height="116" rx="12" fill="#ecf2ff"/>
  <text x="738" y="636" font-family="Arial, sans-serif" font-size="18" fill="#6b7280">Total Tasks</text>
  <text x="738" y="689" font-family="Arial, sans-serif" font-size="54" font-weight="700" fill="#1c1c1e">4</text>

  <rect x="440" y="740" width="520" height="12" rx="6" fill="#e7ebf3"/>
  <rect x="440" y="740" width="390" height="12" rx="6" fill="#5b8def"/>
</svg>
